<?xml version="1.0" encoding="UTF-8"?>
<svg id="Layer_1" xmlns="http://www.w3.org/2000/svg" version="1.1" viewBox="0 0 34.14 31.86">
  <!-- Generator: Adobe Illustrator 30.2.1, SVG Export Plug-In . SVG Version: 2.1.1 Build 1)  -->
  <defs>
    <style>
      .st0 {
        fill: #1b1917;
      }
    </style>
  </defs>
  <g id="Symbol_1_4">
    <path id="Path_477" class="st0" d="M31.09,18.47v11.8c-.05.34.19.65.52.7.06,0,.12,0,.18,0h2.35v.9h-7.78v-.9h2.35c.34.05.65-.19.7-.52,0-.06,0-.12,0-.18v-6.03l1.69-5.77ZM29.41,5.63l-10.42,26.23-2.15-5.63L27,.45h7.13v.9h-2.35c-.73,0-2.38,4.28-2.38,4.28Z"/>
    <g id="Group_523">
      <path id="Path_478" class="st0" d="M7.14,30.27c-.05.34.19.65.52.7.06,0,.12,0,.18,0h4.34v.9H0v-.9h2.35c.34.05.65-.19.7-.52,0-.06,0-.12,0-.18V1.94c0-.39-.23-.59-.7-.59H0V.44h7.12l.02,29.82ZM9.65.45h5.86c1.86.07,3.72-.08,5.54-.45-.35,1.87-.5,3.78-.45,5.68v2.35h-1.15l-.75-5.09c-.07-.74-.54-1.09-1.4-1.09h-7.65V.45Z"/>
    </g>
    <g id="Group_524">
      <path id="Path_479" class="st0" d="M9.65,13.07h1.7c.34,0,.54-.23.59-.7l.25-3.1h.9v8.98h-.9l-.25-3.1c-.07-.47-.27-.7-.59-.7h-1.7v-1.38Z"/>
    </g>
  </g>
</svg>